<svg width="51" height="51" viewBox="0 0 51 51" fill="none" xmlns="http://www.w3.org/2000/svg">
<circle cx="25.5" cy="25.5" r="25.5" fill="#EDEDED"/>
<path fill-rule="evenodd" clip-rule="evenodd" d="M25.2891 25.289C23.162 25.289 21.4321 23.5674 21.4321 21.4503C21.4321 19.3333 23.162 17.6116 25.2891 17.6116C27.4162 17.6116 29.1461 19.3333 29.1461 21.4503C29.1461 23.5674 27.4162 25.289 25.2891 25.289ZM28.9127 25.9349C30.443 24.7094 31.3349 22.7276 31.0071 20.5578C30.6262 18.0405 28.5222 16.0262 25.9824 15.7325C22.4773 15.3266 19.5036 18.0425 19.5036 21.4503C19.5036 23.2641 20.3483 24.8802 21.6654 25.9349C18.4294 27.145 16.067 29.9866 15.6968 33.8215C15.6428 34.3887 16.0873 34.8858 16.66 34.8858C17.1508 34.8858 17.5693 34.5173 17.6127 34.0307C17.9994 29.7477 21.2942 27.2084 25.2891 27.2084C29.284 27.2084 32.5788 29.7477 32.9655 34.0307C33.0089 34.5173 33.4273 34.8858 33.9181 34.8858C34.4909 34.8858 34.9354 34.3887 34.8814 33.8215C34.5112 29.9866 32.1487 27.145 28.9127 25.9349Z" fill="black"/>
</svg>
